<svg width="224" height="52" viewBox="0 0 224 52" fill="none" xmlns="http://www.w3.org/2000/svg">
<path d="M61.2937 38.296H57.8017L57.2017 40H55.7737L58.7617 31.648H60.3457L63.3337 40H61.8937L61.2937 38.296ZM60.9097 37.18L59.5537 33.304L58.1857 37.18H60.9097ZM67.0329 40.108C66.5129 40.108 66.0449 40.016 65.6289 39.832C65.2209 39.64 64.8969 39.384 64.6569 39.064C64.4169 38.736 64.2889 38.372 64.2729 37.972H65.6889C65.7129 38.252 65.8449 38.488 66.0849 38.68C66.3329 38.864 66.6409 38.956 67.0089 38.956C67.3929 38.956 67.6889 38.884 67.8969 38.74C68.1129 38.588 68.2209 38.396 68.2209 38.164C68.2209 37.916 68.1009 37.732 67.8609 37.612C67.6289 37.492 67.2569 37.36 66.7449 37.216C66.2489 37.08 65.8449 36.948 65.5329 36.82C65.2209 36.692 64.9489 36.496 64.7169 36.232C64.4929 35.968 64.3809 35.62 64.3809 35.188C64.3809 34.836 64.4849 34.516 64.6929 34.228C64.9009 33.932 65.1969 33.7 65.5809 33.532C65.9729 33.364 66.4209 33.28 66.9249 33.28C67.6769 33.28 68.2809 33.472 68.7369 33.856C69.2009 34.232 69.4489 34.748 69.4809 35.404H68.1129C68.0889 35.108 67.9689 34.872 67.7529 34.696C67.5369 34.52 67.2449 34.432 66.8769 34.432C66.5169 34.432 66.2409 34.5 66.0489 34.636C65.8569 34.772 65.7609 34.952 65.7609 35.176C65.7609 35.352 65.8249 35.5 65.9529 35.62C66.0809 35.74 66.2369 35.836 66.4209 35.908C66.6049 35.972 66.8769 36.056 67.2369 36.16C67.7169 36.288 68.1089 36.42 68.4129 36.556C68.7249 36.684 68.9929 36.876 69.2169 37.132C69.4409 37.388 69.5569 37.728 69.5649 38.152C69.5649 38.528 69.4609 38.864 69.2529 39.16C69.0449 39.456 68.7489 39.688 68.3649 39.856C67.9889 40.024 67.5449 40.108 67.0329 40.108ZM73.4431 40.108C72.9231 40.108 72.4551 40.016 72.0391 39.832C71.6311 39.64 71.3071 39.384 71.0671 39.064C70.8271 38.736 70.6991 38.372 70.6831 37.972H72.0991C72.1231 38.252 72.2551 38.488 72.4951 38.68C72.7431 38.864 73.0511 38.956 73.4191 38.956C73.8031 38.956 74.0991 38.884 74.3071 38.74C74.5231 38.588 74.6311 38.396 74.6311 38.164C74.6311 37.916 74.5111 37.732 74.2711 37.612C74.0391 37.492 73.6671 37.36 73.1551 37.216C72.6591 37.08 72.2551 36.948 71.9431 36.82C71.6311 36.692 71.3591 36.496 71.1271 36.232C70.9031 35.968 70.7911 35.62 70.7911 35.188C70.7911 34.836 70.8951 34.516 71.1031 34.228C71.3111 33.932 71.6071 33.7 71.9911 33.532C72.3831 33.364 72.8311 33.28 73.3351 33.28C74.0871 33.28 74.6911 33.472 75.1471 33.856C75.6111 34.232 75.8591 34.748 75.8911 35.404H74.5231C74.4991 35.108 74.3791 34.872 74.1631 34.696C73.9471 34.52 73.6551 34.432 73.2871 34.432C72.9271 34.432 72.6511 34.5 72.4591 34.636C72.2671 34.772 72.1711 34.952 72.1711 35.176C72.1711 35.352 72.2351 35.5 72.3631 35.62C72.4911 35.74 72.6471 35.836 72.8311 35.908C73.0151 35.972 73.2871 36.056 73.6471 36.16C74.1271 36.288 74.5191 36.42 74.8231 36.556C75.1351 36.684 75.4031 36.876 75.6271 37.132C75.8511 37.388 75.9671 37.728 75.9751 38.152C75.9751 38.528 75.8711 38.864 75.6631 39.16C75.4551 39.456 75.1591 39.688 74.7751 39.856C74.3991 40.024 73.9551 40.108 73.4431 40.108ZM78.1492 32.512C77.9012 32.512 77.6932 32.428 77.5252 32.26C77.3572 32.092 77.2732 31.884 77.2732 31.636C77.2732 31.388 77.3572 31.18 77.5252 31.012C77.6932 30.844 77.9012 30.76 78.1492 30.76C78.3892 30.76 78.5932 30.844 78.7612 31.012C78.9292 31.18 79.0132 31.388 79.0132 31.636C79.0132 31.884 78.9292 32.092 78.7612 32.26C78.5932 32.428 78.3892 32.512 78.1492 32.512ZM78.8212 33.388V40H77.4532V33.388H78.8212ZM83.0173 40.108C82.4973 40.108 82.0293 40.016 81.6133 39.832C81.2053 39.64 80.8813 39.384 80.6413 39.064C80.4013 38.736 80.2733 38.372 80.2573 37.972H81.6733C81.6973 38.252 81.8293 38.488 82.0693 38.68C82.3173 38.864 82.6253 38.956 82.9933 38.956C83.3773 38.956 83.6733 38.884 83.8813 38.74C84.0973 38.588 84.2053 38.396 84.2053 38.164C84.2053 37.916 84.0853 37.732 83.8453 37.612C83.6133 37.492 83.2413 37.36 82.7293 37.216C82.2333 37.08 81.8293 36.948 81.5173 36.82C81.2053 36.692 80.9333 36.496 80.7013 36.232C80.4773 35.968 80.3653 35.62 80.3653 35.188C80.3653 34.836 80.4693 34.516 80.6773 34.228C80.8853 33.932 81.1813 33.7 81.5653 33.532C81.9573 33.364 82.4053 33.28 82.9093 33.28C83.6613 33.28 84.2653 33.472 84.7213 33.856C85.1853 34.232 85.4333 34.748 85.4653 35.404H84.0973C84.0733 35.108 83.9533 34.872 83.7373 34.696C83.5213 34.52 83.2293 34.432 82.8613 34.432C82.5013 34.432 82.2253 34.5 82.0333 34.636C81.8413 34.772 81.7453 34.952 81.7453 35.176C81.7453 35.352 81.8093 35.5 81.9373 35.62C82.0653 35.74 82.2213 35.836 82.4053 35.908C82.5893 35.972 82.8613 36.056 83.2213 36.16C83.7013 36.288 84.0933 36.42 84.3973 36.556C84.7093 36.684 84.9773 36.876 85.2013 37.132C85.4253 37.388 85.5413 37.728 85.5493 38.152C85.5493 38.528 85.4453 38.864 85.2373 39.16C85.0293 39.456 84.7333 39.688 84.3493 39.856C83.9733 40.024 83.5293 40.108 83.0173 40.108ZM88.6234 34.504V38.164C88.6234 38.412 88.6794 38.592 88.7914 38.704C88.9114 38.808 89.1114 38.86 89.3914 38.86H90.2314V40H89.1514C88.5354 40 88.0634 39.856 87.7354 39.568C87.4074 39.28 87.2434 38.812 87.2434 38.164V34.504H86.4634V33.388H87.2434V31.744H88.6234V33.388H90.2314V34.504H88.6234ZM97.5523 36.532C97.5523 36.78 97.5363 37.004 97.5043 37.204H92.4523C92.4923 37.732 92.6883 38.156 93.0403 38.476C93.3923 38.796 93.8243 38.956 94.3363 38.956C95.0723 38.956 95.5923 38.648 95.8963 38.032H97.3723C97.1723 38.64 96.8083 39.14 96.2803 39.532C95.7603 39.916 95.1123 40.108 94.3363 40.108C93.7043 40.108 93.1363 39.968 92.6323 39.688C92.1363 39.4 91.7443 39 91.4563 38.488C91.1763 37.968 91.0363 37.368 91.0363 36.688C91.0363 36.008 91.1723 35.412 91.4443 34.9C91.7243 34.38 92.1123 33.98 92.6083 33.7C93.1123 33.42 93.6883 33.28 94.3363 33.28C94.9603 33.28 95.5163 33.416 96.0043 33.688C96.4923 33.96 96.8723 34.344 97.1443 34.84C97.4163 35.328 97.5523 35.892 97.5523 36.532ZM96.1243 36.1C96.1163 35.596 95.9363 35.192 95.5843 34.888C95.2323 34.584 94.7963 34.432 94.2763 34.432C93.8043 34.432 93.4003 34.584 93.0643 34.888C92.7283 35.184 92.5283 35.588 92.4643 36.1H96.1243ZM102.235 33.28C102.755 33.28 103.219 33.388 103.627 33.604C104.043 33.82 104.367 34.14 104.599 34.564C104.831 34.988 104.947 35.5 104.947 36.1V40H103.591V36.304C103.591 35.712 103.443 35.26 103.147 34.948C102.851 34.628 102.447 34.468 101.935 34.468C101.423 34.468 101.015 34.628 100.711 34.948C100.415 35.26 100.267 35.712 100.267 36.304V40H98.8985V33.388H100.267V34.144C100.491 33.872 100.775 33.66 101.119 33.508C101.471 33.356 101.843 33.28 102.235 33.28ZM108.288 34.504V38.164C108.288 38.412 108.344 38.592 108.456 38.704C108.576 38.808 108.776 38.86 109.056 38.86H109.896V40H108.816C108.2 40 107.728 39.856 107.4 39.568C107.072 39.28 106.908 38.812 106.908 38.164V34.504H106.128V33.388H106.908V31.744H108.288V33.388H109.896V34.504H108.288ZM117.216 36.532C117.216 36.78 117.2 37.004 117.168 37.204H112.116C112.156 37.732 112.352 38.156 112.704 38.476C113.056 38.796 113.488 38.956 114 38.956C114.736 38.956 115.256 38.648 115.56 38.032H117.036C116.836 38.64 116.472 39.14 115.944 39.532C115.424 39.916 114.776 40.108 114 40.108C113.368 40.108 112.8 39.968 112.296 39.688C111.8 39.4 111.408 39 111.12 38.488C110.84 37.968 110.7 37.368 110.7 36.688C110.7 36.008 110.836 35.412 111.108 34.9C111.388 34.38 111.776 33.98 112.272 33.7C112.776 33.42 113.352 33.28 114 33.28C114.624 33.28 115.18 33.416 115.668 33.688C116.156 33.96 116.536 34.344 116.808 34.84C117.08 35.328 117.216 35.892 117.216 36.532ZM115.788 36.1C115.78 35.596 115.6 35.192 115.248 34.888C114.896 34.584 114.46 34.432 113.94 34.432C113.468 34.432 113.064 34.584 112.728 34.888C112.392 35.184 112.192 35.588 112.128 36.1H115.788ZM123.048 34.36C123.28 34.056 123.596 33.8 123.996 33.592C124.396 33.384 124.848 33.28 125.352 33.28C125.928 33.28 126.452 33.424 126.924 33.712C127.404 33.992 127.78 34.388 128.052 34.9C128.324 35.412 128.46 36 128.46 36.664C128.46 37.328 128.324 37.924 128.052 38.452C127.78 38.972 127.404 39.38 126.924 39.676C126.452 39.964 125.928 40.108 125.352 40.108C124.848 40.108 124.4 40.008 124.008 39.808C123.616 39.6 123.296 39.344 123.048 39.04V43.144H121.68V33.388H123.048V34.36ZM127.068 36.664C127.068 36.208 126.972 35.816 126.78 35.488C126.596 35.152 126.348 34.9 126.036 34.732C125.732 34.556 125.404 34.468 125.052 34.468C124.708 34.468 124.38 34.556 124.068 34.732C123.764 34.908 123.516 35.164 123.324 35.5C123.14 35.836 123.048 36.232 123.048 36.688C123.048 37.144 123.14 37.544 123.324 37.888C123.516 38.224 123.764 38.48 124.068 38.656C124.38 38.832 124.708 38.92 125.052 38.92C125.404 38.92 125.732 38.832 126.036 38.656C126.348 38.472 126.596 38.208 126.78 37.864C126.972 37.52 127.068 37.12 127.068 36.664ZM129.357 36.664C129.357 36 129.493 35.412 129.765 34.9C130.045 34.388 130.421 33.992 130.893 33.712C131.373 33.424 131.901 33.28 132.477 33.28C132.997 33.28 133.449 33.384 133.833 33.592C134.225 33.792 134.537 34.044 134.769 34.348V33.388H136.149V40H134.769V39.016C134.537 39.328 134.221 39.588 133.821 39.796C133.421 40.004 132.965 40.108 132.453 40.108C131.885 40.108 131.365 39.964 130.893 39.676C130.421 39.38 130.045 38.972 129.765 38.452C129.493 37.924 129.357 37.328 129.357 36.664ZM134.769 36.688C134.769 36.232 134.673 35.836 134.481 35.5C134.297 35.164 134.053 34.908 133.749 34.732C133.445 34.556 133.117 34.468 132.765 34.468C132.413 34.468 132.085 34.556 131.781 34.732C131.477 34.9 131.229 35.152 131.037 35.488C130.853 35.816 130.761 36.208 130.761 36.664C130.761 37.12 130.853 37.52 131.037 37.864C131.229 38.208 131.477 38.472 131.781 38.656C132.093 38.832 132.421 38.92 132.765 38.92C133.117 38.92 133.445 38.832 133.749 38.656C134.053 38.48 134.297 38.224 134.481 37.888C134.673 37.544 134.769 37.144 134.769 36.688ZM139.313 34.348C139.513 34.012 139.777 33.752 140.105 33.568C140.441 33.376 140.837 33.28 141.293 33.28V34.696H140.945C140.409 34.696 140.001 34.832 139.721 35.104C139.449 35.376 139.313 35.848 139.313 36.52V40H137.945V33.388H139.313V34.348ZM142.095 36.664C142.095 36 142.231 35.412 142.503 34.9C142.783 34.388 143.159 33.992 143.631 33.712C144.111 33.424 144.639 33.28 145.215 33.28C145.735 33.28 146.187 33.384 146.571 33.592C146.963 33.792 147.275 34.044 147.507 34.348V33.388H148.887V40H147.507V39.016C147.275 39.328 146.959 39.588 146.559 39.796C146.159 40.004 145.703 40.108 145.191 40.108C144.623 40.108 144.103 39.964 143.631 39.676C143.159 39.38 142.783 38.972 142.503 38.452C142.231 37.924 142.095 37.328 142.095 36.664ZM147.507 36.688C147.507 36.232 147.411 35.836 147.219 35.5C147.035 35.164 146.791 34.908 146.487 34.732C146.183 34.556 145.855 34.468 145.503 34.468C145.151 34.468 144.823 34.556 144.519 34.732C144.215 34.9 143.967 35.152 143.775 35.488C143.591 35.816 143.499 36.208 143.499 36.664C143.499 37.12 143.591 37.52 143.775 37.864C143.967 38.208 144.215 38.472 144.519 38.656C144.831 38.832 145.159 38.92 145.503 38.92C145.855 38.92 146.183 38.832 146.487 38.656C146.791 38.48 147.035 38.224 147.219 37.888C147.411 37.544 147.507 37.144 147.507 36.688ZM155.169 34.36C155.401 34.056 155.717 33.8 156.117 33.592C156.517 33.384 156.969 33.28 157.473 33.28C158.049 33.28 158.573 33.424 159.045 33.712C159.525 33.992 159.901 34.388 160.173 34.9C160.445 35.412 160.581 36 160.581 36.664C160.581 37.328 160.445 37.924 160.173 38.452C159.901 38.972 159.525 39.38 159.045 39.676C158.573 39.964 158.049 40.108 157.473 40.108C156.969 40.108 156.521 40.008 156.129 39.808C155.737 39.6 155.417 39.344 155.169 39.04V43.144H153.801V33.388H155.169V34.36ZM159.189 36.664C159.189 36.208 159.093 35.816 158.901 35.488C158.717 35.152 158.469 34.9 158.157 34.732C157.853 34.556 157.525 34.468 157.173 34.468C156.829 34.468 156.501 34.556 156.189 34.732C155.885 34.908 155.637 35.164 155.445 35.5C155.261 35.836 155.169 36.232 155.169 36.688C155.169 37.144 155.261 37.544 155.445 37.888C155.637 38.224 155.885 38.48 156.189 38.656C156.501 38.832 156.829 38.92 157.173 38.92C157.525 38.92 157.853 38.832 158.157 38.656C158.469 38.472 158.717 38.208 158.901 37.864C159.093 37.52 159.189 37.12 159.189 36.664ZM163.302 34.348C163.502 34.012 163.766 33.752 164.094 33.568C164.43 33.376 164.826 33.28 165.282 33.28V34.696H164.934C164.398 34.696 163.99 34.832 163.71 35.104C163.438 35.376 163.302 35.848 163.302 36.52V40H161.934V33.388H163.302V34.348ZM169.407 40.108C168.783 40.108 168.219 39.968 167.715 39.688C167.211 39.4 166.815 39 166.527 38.488C166.239 37.968 166.095 37.368 166.095 36.688C166.095 36.016 166.243 35.42 166.539 34.9C166.835 34.38 167.239 33.98 167.751 33.7C168.263 33.42 168.835 33.28 169.467 33.28C170.099 33.28 170.671 33.42 171.183 33.7C171.695 33.98 172.099 34.38 172.395 34.9C172.691 35.42 172.839 36.016 172.839 36.688C172.839 37.36 172.687 37.956 172.383 38.476C172.079 38.996 171.663 39.4 171.135 39.688C170.615 39.968 170.039 40.108 169.407 40.108ZM169.407 38.92C169.759 38.92 170.087 38.836 170.391 38.668C170.703 38.5 170.955 38.248 171.147 37.912C171.339 37.576 171.435 37.168 171.435 36.688C171.435 36.208 171.343 35.804 171.159 35.476C170.975 35.14 170.731 34.888 170.427 34.72C170.123 34.552 169.795 34.468 169.443 34.468C169.091 34.468 168.763 34.552 168.459 34.72C168.163 34.888 167.927 35.14 167.751 35.476C167.575 35.804 167.487 36.208 167.487 36.688C167.487 37.4 167.667 37.952 168.027 38.344C168.395 38.728 168.855 38.92 169.407 38.92ZM176.964 34.504H175.74V40H174.36V34.504H173.58V33.388H174.36V32.92C174.36 32.16 174.56 31.608 174.96 31.264C175.368 30.912 176.004 30.736 176.868 30.736V31.876C176.452 31.876 176.16 31.956 175.992 32.116C175.824 32.268 175.74 32.536 175.74 32.92V33.388H176.964V34.504ZM184.236 36.532C184.236 36.78 184.22 37.004 184.188 37.204H179.136C179.176 37.732 179.372 38.156 179.724 38.476C180.076 38.796 180.508 38.956 181.02 38.956C181.756 38.956 182.276 38.648 182.58 38.032H184.056C183.856 38.64 183.492 39.14 182.964 39.532C182.444 39.916 181.796 40.108 181.02 40.108C180.388 40.108 179.82 39.968 179.316 39.688C178.82 39.4 178.428 39 178.14 38.488C177.86 37.968 177.72 37.368 177.72 36.688C177.72 36.008 177.856 35.412 178.128 34.9C178.408 34.38 178.796 33.98 179.292 33.7C179.796 33.42 180.372 33.28 181.02 33.28C181.644 33.28 182.2 33.416 182.688 33.688C183.176 33.96 183.556 34.344 183.828 34.84C184.1 35.328 184.236 35.892 184.236 36.532ZM182.808 36.1C182.8 35.596 182.62 35.192 182.268 34.888C181.916 34.584 181.48 34.432 180.96 34.432C180.488 34.432 180.084 34.584 179.748 34.888C179.412 35.184 179.212 35.588 179.148 36.1H182.808ZM187.982 40.108C187.462 40.108 186.994 40.016 186.578 39.832C186.17 39.64 185.846 39.384 185.606 39.064C185.366 38.736 185.238 38.372 185.222 37.972H186.638C186.662 38.252 186.794 38.488 187.034 38.68C187.282 38.864 187.59 38.956 187.958 38.956C188.342 38.956 188.638 38.884 188.846 38.74C189.062 38.588 189.17 38.396 189.17 38.164C189.17 37.916 189.05 37.732 188.81 37.612C188.578 37.492 188.206 37.36 187.694 37.216C187.198 37.08 186.794 36.948 186.482 36.82C186.17 36.692 185.898 36.496 185.666 36.232C185.442 35.968 185.33 35.62 185.33 35.188C185.33 34.836 185.434 34.516 185.642 34.228C185.85 33.932 186.146 33.7 186.53 33.532C186.922 33.364 187.37 33.28 187.874 33.28C188.626 33.28 189.23 33.472 189.686 33.856C190.15 34.232 190.398 34.748 190.43 35.404H189.062C189.038 35.108 188.918 34.872 188.702 34.696C188.486 34.52 188.194 34.432 187.826 34.432C187.466 34.432 187.19 34.5 186.998 34.636C186.806 34.772 186.71 34.952 186.71 35.176C186.71 35.352 186.774 35.5 186.902 35.62C187.03 35.74 187.186 35.836 187.37 35.908C187.554 35.972 187.826 36.056 188.186 36.16C188.666 36.288 189.058 36.42 189.362 36.556C189.674 36.684 189.942 36.876 190.166 37.132C190.39 37.388 190.506 37.728 190.514 38.152C190.514 38.528 190.41 38.864 190.202 39.16C189.994 39.456 189.698 39.688 189.314 39.856C188.938 40.024 188.494 40.108 187.982 40.108ZM194.392 40.108C193.872 40.108 193.404 40.016 192.988 39.832C192.58 39.64 192.256 39.384 192.016 39.064C191.776 38.736 191.648 38.372 191.632 37.972H193.048C193.072 38.252 193.204 38.488 193.444 38.68C193.692 38.864 194 38.956 194.368 38.956C194.752 38.956 195.048 38.884 195.256 38.74C195.472 38.588 195.58 38.396 195.58 38.164C195.58 37.916 195.46 37.732 195.22 37.612C194.988 37.492 194.616 37.36 194.104 37.216C193.608 37.08 193.204 36.948 192.892 36.82C192.58 36.692 192.308 36.496 192.076 36.232C191.852 35.968 191.74 35.62 191.74 35.188C191.74 34.836 191.844 34.516 192.052 34.228C192.26 33.932 192.556 33.7 192.94 33.532C193.332 33.364 193.78 33.28 194.284 33.28C195.036 33.28 195.64 33.472 196.096 33.856C196.56 34.232 196.808 34.748 196.84 35.404H195.472C195.448 35.108 195.328 34.872 195.112 34.696C194.896 34.52 194.604 34.432 194.236 34.432C193.876 34.432 193.6 34.5 193.408 34.636C193.216 34.772 193.12 34.952 193.12 35.176C193.12 35.352 193.184 35.5 193.312 35.62C193.44 35.74 193.596 35.836 193.78 35.908C193.964 35.972 194.236 36.056 194.596 36.16C195.076 36.288 195.468 36.42 195.772 36.556C196.084 36.684 196.352 36.876 196.576 37.132C196.8 37.388 196.916 37.728 196.924 38.152C196.924 38.528 196.82 38.864 196.612 39.16C196.404 39.456 196.108 39.688 195.724 39.856C195.348 40.024 194.904 40.108 194.392 40.108ZM201.27 40.108C200.646 40.108 200.082 39.968 199.578 39.688C199.074 39.4 198.678 39 198.39 38.488C198.102 37.968 197.958 37.368 197.958 36.688C197.958 36.016 198.106 35.42 198.402 34.9C198.698 34.38 199.102 33.98 199.614 33.7C200.126 33.42 200.698 33.28 201.33 33.28C201.962 33.28 202.534 33.42 203.046 33.7C203.558 33.98 203.962 34.38 204.258 34.9C204.554 35.42 204.702 36.016 204.702 36.688C204.702 37.36 204.55 37.956 204.246 38.476C203.942 38.996 203.526 39.4 202.998 39.688C202.478 39.968 201.902 40.108 201.27 40.108ZM201.27 38.92C201.622 38.92 201.95 38.836 202.254 38.668C202.566 38.5 202.818 38.248 203.01 37.912C203.202 37.576 203.298 37.168 203.298 36.688C203.298 36.208 203.206 35.804 203.022 35.476C202.838 35.14 202.594 34.888 202.29 34.72C201.986 34.552 201.658 34.468 201.306 34.468C200.954 34.468 200.626 34.552 200.322 34.72C200.026 34.888 199.79 35.14 199.614 35.476C199.438 35.804 199.35 36.208 199.35 36.688C199.35 37.4 199.53 37.952 199.89 38.344C200.258 38.728 200.718 38.92 201.27 38.92ZM207.423 34.348C207.623 34.012 207.887 33.752 208.215 33.568C208.551 33.376 208.947 33.28 209.403 33.28V34.696H209.055C208.519 34.696 208.111 34.832 207.831 35.104C207.559 35.376 207.423 35.848 207.423 36.52V40H206.055V33.388H207.423V34.348ZM216.72 36.532C216.72 36.78 216.704 37.004 216.672 37.204H211.62C211.66 37.732 211.856 38.156 212.208 38.476C212.56 38.796 212.992 38.956 213.504 38.956C214.24 38.956 214.76 38.648 215.064 38.032H216.54C216.34 38.64 215.976 39.14 215.448 39.532C214.928 39.916 214.28 40.108 213.504 40.108C212.872 40.108 212.304 39.968 211.8 39.688C211.304 39.4 210.912 39 210.624 38.488C210.344 37.968 210.204 37.368 210.204 36.688C210.204 36.008 210.34 35.412 210.612 34.9C210.892 34.38 211.28 33.98 211.776 33.7C212.28 33.42 212.856 33.28 213.504 33.28C214.128 33.28 214.684 33.416 215.172 33.688C215.66 33.96 216.04 34.344 216.312 34.84C216.584 35.328 216.72 35.892 216.72 36.532ZM215.292 36.1C215.284 35.596 215.104 35.192 214.752 34.888C214.4 34.584 213.964 34.432 213.444 34.432C212.972 34.432 212.568 34.584 212.232 34.888C211.896 35.184 211.696 35.588 211.632 36.1H215.292ZM220.467 40.108C219.947 40.108 219.479 40.016 219.063 39.832C218.655 39.64 218.331 39.384 218.091 39.064C217.851 38.736 217.723 38.372 217.707 37.972H219.123C219.147 38.252 219.279 38.488 219.519 38.68C219.767 38.864 220.075 38.956 220.443 38.956C220.827 38.956 221.123 38.884 221.331 38.74C221.547 38.588 221.655 38.396 221.655 38.164C221.655 37.916 221.535 37.732 221.295 37.612C221.063 37.492 220.691 37.36 220.179 37.216C219.683 37.08 219.279 36.948 218.967 36.82C218.655 36.692 218.383 36.496 218.151 36.232C217.927 35.968 217.815 35.62 217.815 35.188C217.815 34.836 217.919 34.516 218.127 34.228C218.335 33.932 218.631 33.7 219.015 33.532C219.407 33.364 219.855 33.28 220.359 33.28C221.111 33.28 221.715 33.472 222.171 33.856C222.635 34.232 222.883 34.748 222.915 35.404H221.547C221.523 35.108 221.403 34.872 221.187 34.696C220.971 34.52 220.679 34.432 220.311 34.432C219.951 34.432 219.675 34.5 219.483 34.636C219.291 34.772 219.195 34.952 219.195 35.176C219.195 35.352 219.259 35.5 219.387 35.62C219.515 35.74 219.671 35.836 219.855 35.908C220.039 35.972 220.311 36.056 220.671 36.16C221.151 36.288 221.543 36.42 221.847 36.556C222.159 36.684 222.427 36.876 222.651 37.132C222.875 37.388 222.991 37.728 222.999 38.152C222.999 38.528 222.895 38.864 222.687 39.16C222.479 39.456 222.183 39.688 221.799 39.856C221.423 40.024 220.979 40.108 220.467 40.108Z" fill="#475569"/>
<path d="M59.66 13.7V16.54H64.24V19.18H59.66V22.26H64.84V25H56.24V10.96H64.84V13.7H59.66ZM66.3803 19.4C66.3803 18.2533 66.5936 17.2467 67.0203 16.38C67.4603 15.5133 68.0536 14.8467 68.8003 14.38C69.547 13.9133 70.3803 13.68 71.3003 13.68C72.0336 13.68 72.7003 13.8333 73.3003 14.14C73.9136 14.4467 74.3936 14.86 74.7403 15.38V10.2H78.1603V25H74.7403V23.4C74.4203 23.9333 73.9603 24.36 73.3603 24.68C72.7736 25 72.087 25.16 71.3003 25.16C70.3803 25.16 69.547 24.9267 68.8003 24.46C68.0536 23.98 67.4603 23.3067 67.0203 22.44C66.5936 21.56 66.3803 20.5467 66.3803 19.4ZM74.7403 19.42C74.7403 18.5667 74.5003 17.8933 74.0203 17.4C73.5536 16.9067 72.9803 16.66 72.3003 16.66C71.6203 16.66 71.0403 16.9067 70.5603 17.4C70.0936 17.88 69.8603 18.5467 69.8603 19.4C69.8603 20.2533 70.0936 20.9333 70.5603 21.44C71.0403 21.9333 71.6203 22.18 72.3003 22.18C72.9803 22.18 73.5536 21.9333 74.0203 21.44C74.5003 20.9467 74.7403 20.2733 74.7403 19.42ZM91.6545 13.84V25H88.2345V23.48C87.8879 23.9733 87.4145 24.3733 86.8145 24.68C86.2279 24.9733 85.5745 25.12 84.8545 25.12C84.0012 25.12 83.2479 24.9333 82.5945 24.56C81.9412 24.1733 81.4345 23.62 81.0745 22.9C80.7145 22.18 80.5345 21.3333 80.5345 20.36V13.84H83.9345V19.9C83.9345 20.6467 84.1279 21.2267 84.5145 21.64C84.9012 22.0533 85.4212 22.26 86.0745 22.26C86.7412 22.26 87.2679 22.0533 87.6545 21.64C88.0412 21.2267 88.2345 20.6467 88.2345 19.9V13.84H91.6545ZM93.4311 19.42C93.4311 18.26 93.6644 17.2467 94.1311 16.38C94.6111 15.5133 95.2711 14.8467 96.1111 14.38C96.9644 13.9133 97.9378 13.68 99.0311 13.68C100.431 13.68 101.598 14.0467 102.531 14.78C103.478 15.5133 104.098 16.5467 104.391 17.88H100.751C100.444 17.0267 99.8511 16.6 98.9711 16.6C98.3444 16.6 97.8444 16.8467 97.4711 17.34C97.0978 17.82 96.9111 18.5133 96.9111 19.42C96.9111 20.3267 97.0978 21.0267 97.4711 21.52C97.8444 22 98.3444 22.24 98.9711 22.24C99.8511 22.24 100.444 21.8133 100.751 20.96H104.391C104.098 22.2667 103.478 23.2933 102.531 24.04C101.584 24.7867 100.418 25.16 99.0311 25.16C97.9378 25.16 96.9644 24.9267 96.1111 24.46C95.2711 23.9933 94.6111 23.3267 94.1311 22.46C93.6644 21.5933 93.4311 20.58 93.4311 19.42ZM114.96 22.52H109.72L108.88 25H105.3L110.38 10.96H114.34L119.42 25H115.8L114.96 22.52ZM114.08 19.88L112.34 14.74L110.62 19.88H114.08ZM125.507 25.16C124.533 25.16 123.667 24.9933 122.907 24.66C122.147 24.3267 121.547 23.8733 121.107 23.3C120.667 22.7133 120.42 22.06 120.367 21.34H123.747C123.787 21.7267 123.967 22.04 124.287 22.28C124.607 22.52 125 22.64 125.467 22.64C125.893 22.64 126.22 22.56 126.447 22.4C126.687 22.2267 126.807 22.0067 126.807 21.74C126.807 21.42 126.64 21.1867 126.307 21.04C125.973 20.88 125.433 20.7067 124.687 20.52C123.887 20.3333 123.22 20.14 122.687 19.94C122.153 19.7267 121.693 19.4 121.307 18.96C120.92 18.5067 120.727 17.9 120.727 17.14C120.727 16.5 120.9 15.92 121.247 15.4C121.607 14.8667 122.127 14.4467 122.807 14.14C123.5 13.8333 124.32 13.68 125.267 13.68C126.667 13.68 127.767 14.0267 128.567 14.72C129.38 15.4133 129.847 16.3333 129.967 17.48H126.807C126.753 17.0933 126.58 16.7867 126.287 16.56C126.007 16.3333 125.633 16.22 125.167 16.22C124.767 16.22 124.46 16.3 124.247 16.46C124.033 16.6067 123.927 16.8133 123.927 17.08C123.927 17.4 124.093 17.64 124.427 17.8C124.773 17.96 125.307 18.12 126.027 18.28C126.853 18.4933 127.527 18.7067 128.047 18.92C128.567 19.12 129.02 19.4533 129.407 19.92C129.807 20.3733 130.013 20.9867 130.027 21.76C130.027 22.4133 129.84 23 129.467 23.52C129.107 24.0267 128.58 24.4267 127.887 24.72C127.207 25.0133 126.413 25.16 125.507 25.16ZM136.659 25.16C135.686 25.16 134.819 24.9933 134.059 24.66C133.299 24.3267 132.699 23.8733 132.259 23.3C131.819 22.7133 131.572 22.06 131.519 21.34H134.899C134.939 21.7267 135.119 22.04 135.439 22.28C135.759 22.52 136.152 22.64 136.619 22.64C137.046 22.64 137.372 22.56 137.599 22.4C137.839 22.2267 137.959 22.0067 137.959 21.74C137.959 21.42 137.792 21.1867 137.459 21.04C137.126 20.88 136.586 20.7067 135.839 20.52C135.039 20.3333 134.372 20.14 133.839 19.94C133.306 19.7267 132.846 19.4 132.459 18.96C132.072 18.5067 131.879 17.9 131.879 17.14C131.879 16.5 132.052 15.92 132.399 15.4C132.759 14.8667 133.279 14.4467 133.959 14.14C134.652 13.8333 135.472 13.68 136.419 13.68C137.819 13.68 138.919 14.0267 139.719 14.72C140.532 15.4133 140.999 16.3333 141.119 17.48H137.959C137.906 17.0933 137.732 16.7867 137.439 16.56C137.159 16.3333 136.786 16.22 136.319 16.22C135.919 16.22 135.612 16.3 135.399 16.46C135.186 16.6067 135.079 16.8133 135.079 17.08C135.079 17.4 135.246 17.64 135.579 17.8C135.926 17.96 136.459 18.12 137.179 18.28C138.006 18.4933 138.679 18.7067 139.199 18.92C139.719 19.12 140.172 19.4533 140.559 19.92C140.959 20.3733 141.166 20.9867 141.179 21.76C141.179 22.4133 140.992 23 140.619 23.52C140.259 24.0267 139.732 24.4267 139.039 24.72C138.359 25.0133 137.566 25.16 136.659 25.16ZM144.991 12.68C144.391 12.68 143.898 12.5067 143.511 12.16C143.138 11.8 142.951 11.36 142.951 10.84C142.951 10.3067 143.138 9.86667 143.511 9.52C143.898 9.16 144.391 8.98 144.991 8.98C145.578 8.98 146.058 9.16 146.431 9.52C146.818 9.86667 147.011 10.3067 147.011 10.84C147.011 11.36 146.818 11.8 146.431 12.16C146.058 12.5067 145.578 12.68 144.991 12.68ZM146.691 13.84V25H143.271V13.84H146.691ZM153.71 25.16C152.736 25.16 151.87 24.9933 151.11 24.66C150.35 24.3267 149.75 23.8733 149.31 23.3C148.87 22.7133 148.623 22.06 148.57 21.34H151.95C151.99 21.7267 152.17 22.04 152.49 22.28C152.81 22.52 153.203 22.64 153.67 22.64C154.096 22.64 154.423 22.56 154.65 22.4C154.89 22.2267 155.01 22.0067 155.01 21.74C155.01 21.42 154.843 21.1867 154.51 21.04C154.176 20.88 153.636 20.7067 152.89 20.52C152.09 20.3333 151.423 20.14 150.89 19.94C150.356 19.7267 149.896 19.4 149.51 18.96C149.123 18.5067 148.93 17.9 148.93 17.14C148.93 16.5 149.103 15.92 149.45 15.4C149.81 14.8667 150.33 14.4467 151.01 14.14C151.703 13.8333 152.523 13.68 153.47 13.68C154.87 13.68 155.97 14.0267 156.77 14.72C157.583 15.4133 158.05 16.3333 158.17 17.48H155.01C154.956 17.0933 154.783 16.7867 154.49 16.56C154.21 16.3333 153.836 16.22 153.37 16.22C152.97 16.22 152.663 16.3 152.45 16.46C152.236 16.6067 152.13 16.8133 152.13 17.08C152.13 17.4 152.296 17.64 152.63 17.8C152.976 17.96 153.51 18.12 154.23 18.28C155.056 18.4933 155.73 18.7067 156.25 18.92C156.77 19.12 157.223 19.4533 157.61 19.92C158.01 20.3733 158.216 20.9867 158.23 21.76C158.23 22.4133 158.043 23 157.67 23.52C157.31 24.0267 156.783 24.4267 156.09 24.72C155.41 25.0133 154.616 25.16 153.71 25.16ZM166.542 22.1V25H164.802C163.562 25 162.595 24.7 161.902 24.1C161.209 23.4867 160.862 22.4933 160.862 21.12V16.68H159.502V13.84H160.862V11.12H164.282V13.84H166.522V16.68H164.282V21.16C164.282 21.4933 164.362 21.7333 164.522 21.88C164.682 22.0267 164.949 22.1 165.322 22.1H166.542Z" fill="#0D9488"/>
<path d="M25.2684 20.8206C24.2579 23.0905 21.4898 24.1429 19.0733 23.1937C16.6568 22.2444 15.5364 19.6444 16.547 17.3746C17.5575 15.1048 20.3255 14.0524 22.742 15.0016C25.1586 15.9508 26.2789 18.5508 25.2684 20.8206ZM46.5118 31.4889C46.5118 32.3762 45.7429 33.0984 44.7983 33.0984H42.0083V38.6286C42.0083 42.9206 38.2956 46.4079 33.7262 46.4079H30.431V52H8.02322V35.2651C-1.09365 28.5175 -2.67537 16.1159 4.48632 7.53175C8.46259 2.78571 14.5478 0 20.9846 0C30.5188 0 39.3062 6.72698 41.1296 14.1143C41.547 15.7651 42.0083 20.0571 42.0083 20.0571L46.38 30.8698C46.4679 31.0556 46.5118 31.2619 46.5118 31.4889ZM29.8818 17.7048L32.5619 16.1365L31.4415 13.5571L28.344 14.2175C27.7508 13.4333 27.0259 12.7317 26.1911 12.1746L26.916 9.28571L24.17 8.2127L22.4784 10.7302C21.4679 10.5651 20.4134 10.5651 19.4028 10.7095L17.7552 8.15079L14.9872 9.20317L15.6902 12.0921C14.8554 12.6492 14.1085 13.3302 13.5153 14.1143L10.4397 13.4333L9.27542 16.0127L11.9556 17.6016C11.7798 18.5508 11.7798 19.5413 11.9336 20.4905L9.25345 22.0794L10.3738 24.6587L13.4494 23.9984C14.0426 24.7825 14.7675 25.4841 15.6023 26.0413L14.8774 28.9302L17.6234 30.0032L19.315 27.4857C20.3255 27.6508 21.38 27.6508 22.3905 27.5063L24.0601 30.0238L26.8062 28.9714L26.1032 26.0619C26.938 25.5048 27.6849 24.8238 28.2781 24.0397L31.3536 24.7206L32.496 22.1413L29.8158 20.5524C30.0575 19.6238 30.0575 18.654 29.8818 17.7048Z" fill="#0D9488"/>
</svg>
