<svg width="47" height="52" viewBox="0 0 47 52" fill="none" xmlns="http://www.w3.org/2000/svg">
<path d="M25.2684 20.8206C24.2579 23.0905 21.4898 24.1429 19.0733 23.1937C16.6568 22.2444 15.5364 19.6444 16.547 17.3746C17.5575 15.1048 20.3255 14.0524 22.742 15.0016C25.1586 15.9508 26.2789 18.5508 25.2684 20.8206ZM46.5118 31.4889C46.5118 32.3762 45.7429 33.0984 44.7983 33.0984H42.0083V38.6286C42.0083 42.9206 38.2956 46.4079 33.7262 46.4079H30.431V52H8.02322V35.2651C-1.09365 28.5175 -2.67537 16.1159 4.48632 7.53175C8.46259 2.78571 14.5478 0 20.9846 0C30.5188 0 39.3062 6.72698 41.1296 14.1143C41.547 15.7651 42.0083 20.0571 42.0083 20.0571L46.38 30.8698C46.4679 31.0556 46.5118 31.2619 46.5118 31.4889ZM29.8818 17.7048L32.5619 16.1365L31.4415 13.5571L28.344 14.2175C27.7508 13.4333 27.0259 12.7317 26.1911 12.1746L26.916 9.28571L24.17 8.2127L22.4784 10.7302C21.4679 10.5651 20.4134 10.5651 19.4028 10.7095L17.7552 8.15079L14.9872 9.20317L15.6902 12.0921C14.8554 12.6492 14.1085 13.3302 13.5153 14.1143L10.4397 13.4333L9.27542 16.0127L11.9556 17.6016C11.7798 18.5508 11.7798 19.5413 11.9336 20.4905L9.25345 22.0794L10.3738 24.6587L13.4494 23.9984C14.0426 24.7825 14.7675 25.4841 15.6023 26.0413L14.8774 28.9302L17.6234 30.0032L19.315 27.4857C20.3255 27.6508 21.38 27.6508 22.3905 27.5063L24.0601 30.0238L26.8062 28.9714L26.1032 26.0619C26.938 25.5048 27.6849 24.8238 28.2781 24.0397L31.3536 24.7206L32.496 22.1413L29.8158 20.5524C30.0575 19.6238 30.0575 18.654 29.8818 17.7048Z" fill="#0D9488"/>
</svg>
